<svg width="23" height="31" viewBox="0 0 23 31" fill="none" xmlns="http://www.w3.org/2000/svg">
<path d="M11.4995 0C5.30887 0 0.272461 5.03641 0.272461 11.227C0.272461 18.9096 10.3195 30.1882 10.7473 30.6646C11.1491 31.1121 11.8506 31.1113 12.2517 30.6646C12.6794 30.1882 22.7265 18.9096 22.7265 11.227C22.7264 5.03641 17.69 0 11.4995 0ZM11.4995 16.8756C8.38483 16.8756 5.85095 14.3416 5.85095 11.227C5.85095 8.11231 8.38489 5.57843 11.4995 5.57843C14.6141 5.57843 17.148 8.11237 17.148 11.227C17.148 14.3417 14.6141 16.8756 11.4995 16.8756Z" fill="url(#paint0_linear)"/>
<defs>
<linearGradient id="paint0_linear" x1="11.4995" y1="0" x2="11.4995" y2="31" gradientUnits="userSpaceOnUse">
<stop stop-color="#1D3961"/>
<stop offset="1" stop-color="#1D3961"/>
</linearGradient>
</defs>
</svg>
