<svg width="13" height="19" viewBox="0 0 13 19" fill="none" xmlns="http://www.w3.org/2000/svg">
<path d="M8.3302 9.50402L1.22235 2.39585C1.02663 2.2006 0.918967 1.93954 0.918967 1.66119C0.918967 1.38267 1.02663 1.12177 1.22235 0.926211L1.84518 0.303691C2.04058 0.107821 2.3018 0 2.58015 0C2.85851 0 3.11941 0.107821 3.31497 0.303691L11.778 8.76657C11.9743 8.96275 12.0819 9.22489 12.0811 9.50355C12.0819 9.78345 11.9745 10.0453 11.778 10.2416L3.32285 18.6963C3.12729 18.8922 2.86639 19 2.58788 19C2.30952 19 2.04862 18.8922 1.8529 18.6963L1.23023 18.0738C0.825048 17.6686 0.825048 17.009 1.23023 16.604L8.3302 9.50402Z" fill="url(#paint0_linear)"/>
<defs>
<linearGradient id="paint0_linear" x1="6.50003" y1="0" x2="6.50003" y2="19" gradientUnits="userSpaceOnUse">
<stop stop-color="#8BD1C0"/>
<stop offset="1" stop-color="#A6DCB5"/>
</linearGradient>
</defs>
</svg>
