<svg width="11" height="19" viewBox="0 0 11 19" fill="none" xmlns="http://www.w3.org/2000/svg">
<path d="M10.2492 0.00395327L7.78536 0C5.01731 0 3.22848 1.8353 3.22848 4.67593V6.83184H0.751186C0.537119 6.83184 0.36377 7.00539 0.36377 7.21946V10.3431C0.36377 10.5572 0.537316 10.7306 0.751186 10.7306H3.22848V18.6126C3.22848 18.8267 3.40182 19 3.61589 19H6.84805C7.06212 19 7.23547 18.8265 7.23547 18.6126V10.7306H10.132C10.3461 10.7306 10.5194 10.5572 10.5194 10.3431L10.5206 7.21946C10.5206 7.11667 10.4797 7.01824 10.4071 6.9455C10.3346 6.87276 10.2358 6.83184 10.133 6.83184H7.23547V5.00424C7.23547 4.12583 7.44479 3.6799 8.58905 3.6799L10.2488 3.67931C10.4627 3.67931 10.636 3.50576 10.636 3.29189V0.391374C10.636 0.177699 10.4629 0.0043486 10.2492 0.00395327Z" />
</svg>
