<svg width="19" height="19" viewBox="0 0 19 19" fill="none" xmlns="http://www.w3.org/2000/svg">
<path d="M17.1 0H1.9C0.855 0 0 0.855 0 1.9V17.1C0 18.145 0.855 19 1.9 19H17.1C18.145 19 19 18.145 19 17.1V1.9C19 0.855 18.145 0 17.1 0ZM9.5 5.7C11.59 5.7 13.3 7.41 13.3 9.5C13.3 11.59 11.59 13.3 9.5 13.3C7.41 13.3 5.7 11.59 5.7 9.5C5.7 7.41 7.41 5.7 9.5 5.7ZM2.375 17.1C2.09 17.1 1.9 16.91 1.9 16.625V8.55H3.895C3.8 8.835 3.8 9.215 3.8 9.5C3.8 12.635 6.365 15.2 9.5 15.2C12.635 15.2 15.2 12.635 15.2 9.5C15.2 9.215 15.2 8.835 15.105 8.55H17.1V16.625C17.1 16.91 16.91 17.1 16.625 17.1H2.375ZM17.1 4.275C17.1 4.56 16.91 4.75 16.625 4.75H14.725C14.44 4.75 14.25 4.56 14.25 4.275V2.375C14.25 2.09 14.44 1.9 14.725 1.9H16.625C16.91 1.9 17.1 2.09 17.1 2.375V4.275Z" />
</svg>
