<svg width="43" height="43" viewBox="0 0 43 43" fill="none" xmlns="http://www.w3.org/2000/svg">
<g clip-path="url(#clip0)">
<path d="M42.6211 8.54272L29.5801 21.4998L42.6211 34.4568C42.8568 33.964 42.9999 33.4193 42.9999 32.8376V10.1619C42.9999 9.5801 42.8568 9.03546 42.6211 8.54272Z" fill="url(#paint0_linear)"/>
<path d="M39.2207 6.38281H3.77929C3.19753 6.38281 2.65289 6.52584 2.16016 6.76158L18.8279 23.3454C20.3017 24.8192 22.6983 24.8192 24.172 23.3454L40.8398 6.76158C40.3471 6.52584 39.8025 6.38281 39.2207 6.38281Z" fill="url(#paint1_linear)"/>
<path d="M0.37877 8.54272C0.143025 9.03546 0 9.5801 0 10.1619V32.8376C0 33.4194 0.143025 33.9641 0.37877 34.4568L13.4198 21.4998L0.37877 8.54272Z" fill="url(#paint2_linear)"/>
<path d="M27.7988 23.2815L25.9534 25.1269C23.4978 27.5825 19.5021 27.5825 17.0465 25.1269L15.2012 23.2815L2.16016 36.2385C2.65289 36.4743 3.19753 36.6173 3.77929 36.6173H39.2207C39.8025 36.6173 40.3471 36.4743 40.8398 36.2385L27.7988 23.2815Z" fill="url(#paint3_linear)"/>
</g>
<defs>
<linearGradient id="paint0_linear" x1="36.29" y1="8.54272" x2="36.29" y2="34.4568" gradientUnits="userSpaceOnUse">
<stop stop-color="#83CDC3"/>
<stop offset="1" stop-color="#AADEB4"/>
</linearGradient>
<linearGradient id="paint1_linear" x1="21.5" y1="6.38281" x2="21.5" y2="24.4507" gradientUnits="userSpaceOnUse">
<stop stop-color="#83CDC3"/>
<stop offset="1" stop-color="#AADEB4"/>
</linearGradient>
<linearGradient id="paint2_linear" x1="6.70989" y1="8.54272" x2="6.70989" y2="34.4568" gradientUnits="userSpaceOnUse">
<stop stop-color="#83CDC3"/>
<stop offset="1" stop-color="#AADEB4"/>
</linearGradient>
<linearGradient id="paint3_linear" x1="21.5" y1="23.2815" x2="21.5" y2="36.6173" gradientUnits="userSpaceOnUse">
<stop stop-color="#83CDC3"/>
<stop offset="1" stop-color="#AADEB4"/>
</linearGradient>
<clipPath id="clip0">
<rect width="43" height="43" fill="white"/>
</clipPath>
</defs>
</svg>
