<svg width="43" height="43" viewBox="0 0 43 43" fill="none" xmlns="http://www.w3.org/2000/svg">
<path d="M42.036 33.9826L35.3953 27.3412C34.0726 26.0238 31.8822 26.0638 30.5134 27.4331L27.1678 30.7779C26.9564 30.6614 26.7377 30.5398 26.5076 30.4107C24.3949 29.24 21.5033 27.6356 18.4605 24.5905C15.4087 21.5391 13.8027 18.643 12.6285 16.5289C12.5046 16.305 12.3859 16.089 12.2686 15.884L14.514 13.6419L15.6179 12.5366C16.9888 11.1654 17.0266 8.97558 15.707 7.65437L9.06634 1.01221C7.74673 -0.307149 5.55533 -0.267123 4.18445 1.10413L2.31288 2.98644L2.36403 3.03721C1.73646 3.83797 1.21205 4.76153 0.821804 5.75747C0.462067 6.70549 0.238097 7.61014 0.135685 8.51665C-0.741172 15.786 2.58071 22.4296 11.5959 31.4449C24.0575 43.9057 34.1 42.9644 34.5333 42.9184C35.4768 42.8056 36.3811 42.5802 37.3001 42.2233C38.2874 41.8376 39.2103 41.3139 40.0106 40.6877L40.0515 40.7241L41.9475 38.8674C43.3156 37.4964 43.355 35.3059 42.036 33.9826Z" fill="url(#paint0_linear)"/>
<defs>
<linearGradient id="paint0_linear" x1="21.5" y1="0.048584" x2="21.5" y2="42.9513" gradientUnits="userSpaceOnUse">
<stop stop-color="#80CCC4"/>
<stop offset="1" stop-color="#A7DDB5"/>
</linearGradient>
</defs>
</svg>
