<?xml version="1.0" encoding="iso-8859-1"?>
<!-- Generator: Adobe Illustrator 19.0.0, SVG Export Plug-In . SVG Version: 6.00 Build 0)  -->
<svg version="1.1" id="Capa_1" xmlns="http://www.w3.org/2000/svg" xmlns:xlink="http://www.w3.org/1999/xlink" x="0px" y="0px"
	 viewBox="0 0 384 384" style="" xml:space="preserve">
		<path d="M302.314,200.84l-96-192C203.602,3.424,198.058,0,192.002,0c-6.056,0-11.6,3.424-14.312,8.84l-96,192
			c-2.48,4.96-2.216,10.848,0.704,15.568c2.912,4.72,8.064,7.592,13.608,7.592h192c5.544,0,10.696-2.872,13.608-7.592
			C304.53,211.696,304.786,205.8,302.314,200.84z M121.89,192l70.112-140.224L262.114,192H121.89z"/>
		<path d="M232.002,256c-8.832,0-16,7.168-16,16v51.808l-51.704-62.048c-4.312-5.176-11.408-7.088-17.736-4.8
			c-6.344,2.288-10.56,8.304-10.56,15.04v96c0,8.832,7.168,16,16,16c8.832,0,16-7.168,16-16v-51.808l51.704,62.048
			c3.104,3.728,7.64,5.76,12.296,5.76c1.824,0,3.664-0.312,5.44-0.96c6.344-2.288,10.56-8.304,10.56-15.04v-96
			C248.002,263.168,240.834,256,232.002,256z"/>
</svg>
