<svg width="33" height="43" viewBox="0 0 33 43" fill="none" xmlns="http://www.w3.org/2000/svg">
<path d="M16.4997 0C7.91275 0 0.926758 6.98599 0.926758 15.5729C0.926758 26.2295 14.863 41.874 15.4564 42.5348C16.0137 43.1555 16.9868 43.1544 17.5431 42.5348C18.1364 41.874 32.0727 26.2295 32.0727 15.5729C32.0725 6.98599 25.0866 0 16.4997 0ZM16.4997 23.408C12.1794 23.408 8.66466 19.8932 8.66466 15.5729C8.66466 11.2526 12.1795 7.73782 16.4997 7.73782C20.82 7.73782 24.3347 11.2526 24.3347 15.573C24.3347 19.8933 20.82 23.408 16.4997 23.408Z" fill="url(#paint0_linear)"/>
<defs>
<linearGradient id="paint0_linear" x1="16.4997" y1="0" x2="16.4997" y2="43" gradientUnits="userSpaceOnUse">
<stop stop-color="#85CFC3"/>
<stop offset="1" stop-color="#B6E2AE"/>
</linearGradient>
</defs>
</svg>
