<svg width="43" height="43" viewBox="0 0 43 43" fill="none" xmlns="http://www.w3.org/2000/svg">
<path d="M38.9477 4.03224C33.5445 -1.34414 24.7532 -1.34405 19.35 4.03232C15.6593 7.70468 14.3774 13.1166 15.9754 18.0266L0.369294 33.5552C0.133046 33.7903 0.000183105 34.1085 0.000183105 34.4416V41.5329C0.000183105 42.2258 0.563634 42.7864 1.25995 42.7864H8.38669C8.72129 42.7864 9.04118 42.6542 9.27735 42.4191L11.0587 40.6453C11.3306 40.3748 11.4635 39.9953 11.4192 39.6146L11.1977 37.7099L13.8501 37.4613C14.453 37.405 14.9291 36.9313 14.9857 36.3314L15.2355 33.6922L17.1497 33.9137C17.5052 33.9615 17.8632 33.8427 18.1327 33.6053C18.4008 33.3666 18.5546 33.0263 18.5546 32.6688V30.3349H20.8576C21.1922 30.3349 21.5121 30.2027 21.7483 29.9676L24.9789 26.7956C29.9121 28.387 35.257 27.2075 38.9477 23.5326C44.3509 18.1563 44.3509 9.40861 38.9477 4.03224ZM35.3838 12.8962C33.91 14.3627 31.5135 14.3627 30.0396 12.8962C28.5658 11.4297 28.5658 9.0451 30.0396 7.57858C31.5135 6.11206 33.91 6.11206 35.3838 7.57858C36.8576 9.0451 36.8576 11.4297 35.3838 12.8962Z" fill="url(#paint0_linear)"/>
<defs>
<linearGradient id="paint0_linear" x1="21.5001" y1="0" x2="21.5001" y2="42.7864" gradientUnits="userSpaceOnUse">
<stop stop-color="#8ED2BF"/>
<stop offset="1" stop-color="#AFDFB0"/>
</linearGradient>
</defs>
</svg>
