<svg width="37" height="43" viewBox="0 0 37 43" fill="none" xmlns="http://www.w3.org/2000/svg">
<path d="M33.727 4.84326H32.4697V35.5793C32.4697 37.6211 30.7993 39.2832 28.7472 39.2832H16.0079H5.87756V40.4226C5.87756 41.7273 6.94179 42.7862 8.25298 42.7862H20.9878H33.7225C35.0337 42.7862 36.0979 41.7273 36.0979 40.4226V7.20688C36.0979 5.9022 35.0382 4.84326 33.727 4.84326Z" fill="url(#paint0_linear)"/>
<path d="M16.0079 37.9429H28.7427C30.0539 37.9429 31.1181 36.884 31.1181 35.5794V4.8434V2.36362C31.1181 1.05894 30.0539 0 28.7427 0H16.0079H11.7735V0.781915C11.7824 0.86234 11.7869 0.947234 11.7869 1.03213V6.18383V7.50638C11.7869 9.34276 10.2872 10.8351 8.4416 10.8351H7.11244H1.93501C1.86766 10.8351 1.79581 10.8306 1.72846 10.8262H0.902222V35.5794C0.902222 36.884 1.96645 37.9429 3.27764 37.9429H5.88207H16.0079ZM16.4884 29.9094H8.18565C7.56597 29.9094 7.06305 29.4089 7.06305 28.7923C7.06305 28.1757 7.56597 27.6753 8.18565 27.6753H16.4929C17.1126 27.6753 17.6155 28.1757 17.6155 28.7923C17.6155 29.4089 17.1081 29.9094 16.4884 29.9094ZM24.7956 24.2081H8.18565C7.56597 24.2081 7.06305 23.7077 7.06305 23.0911C7.06305 22.4745 7.56597 21.9741 8.18565 21.9741H24.7956C25.4153 21.9741 25.9182 22.4745 25.9182 23.0911C25.9182 23.7077 25.4153 24.2081 24.7956 24.2081ZM8.18565 15.9198H24.7956C25.4153 15.9198 25.9182 16.4202 25.9182 17.0368C25.9182 17.6534 25.4153 18.1538 24.7956 18.1538H8.18565C7.56597 18.1538 7.06305 17.6534 7.06305 17.0368C7.06305 16.4202 7.56597 15.9198 8.18565 15.9198Z" fill="url(#paint1_linear)"/>
<path d="M1.93506 9.49482H8.44164C8.44613 9.49482 8.45511 9.49482 8.4596 9.49482C9.54628 9.48589 10.4264 8.61014 10.4354 7.52887C10.4354 7.5244 10.4354 7.51546 10.4354 7.51099V1.03227C10.4354 0.433548 9.94143 0.0358887 9.42957 0.0358887C9.1826 0.0358887 8.93563 0.12525 8.72907 0.330782L1.22558 7.79695C0.59692 8.42248 1.04147 9.49482 1.93506 9.49482Z" fill="url(#paint2_linear)"/>
<defs>
<linearGradient id="paint0_linear" x1="20.9877" y1="4.84326" x2="20.9877" y2="42.7862" gradientUnits="userSpaceOnUse">
<stop stop-color="#8ED2BF"/>
<stop offset="1" stop-color="#AFDEB0"/>
</linearGradient>
<linearGradient id="paint1_linear" x1="16.0102" y1="0" x2="16.0102" y2="37.9429" gradientUnits="userSpaceOnUse">
<stop stop-color="#8ED2BF"/>
<stop offset="1" stop-color="#AFDEB0"/>
</linearGradient>
<linearGradient id="paint2_linear" x1="5.68333" y1="0.0358887" x2="5.68333" y2="9.49482" gradientUnits="userSpaceOnUse">
<stop stop-color="#8ED2BF"/>
<stop offset="1" stop-color="#AFDEB0"/>
</linearGradient>
</defs>
</svg>
