<svg width="46" height="39" viewBox="0 0 46 39" fill="none" xmlns="http://www.w3.org/2000/svg">
<path d="M42.5911 0.875732H11.0275C9.13368 0.875732 7.61862 2.42513 7.61862 4.26765V23.7817C7.61862 25.6661 9.17576 27.1736 11.0275 27.1736H32.7854L37.7093 32.1149C37.9197 32.3243 38.1722 32.4499 38.4668 32.4499C39.056 32.4499 39.561 31.9893 39.561 31.3611V27.1736H42.5911C44.485 27.1736 46 25.6242 46 23.7817V4.26765C46 2.38325 44.4429 0.875732 42.5911 0.875732ZM15.8673 17.6678C14.1418 17.6678 12.7109 16.2441 12.7109 14.5272C12.7109 12.8103 14.1418 11.3865 15.8673 11.3865C17.5927 11.3865 19.0236 12.8103 19.0236 14.5272C19.0236 16.2441 17.6348 17.6678 15.8673 17.6678ZM26.9356 17.6678C25.2101 17.6678 23.7792 16.2441 23.7792 14.5272C23.7792 12.8103 25.2101 11.3865 26.9356 11.3865C28.661 11.3865 30.0919 12.8103 30.0919 14.5272C30.0919 16.2441 28.661 17.6678 26.9356 17.6678ZM37.9618 17.6678C36.2363 17.6678 34.8054 16.2441 34.8054 14.5272C34.8054 12.8103 36.2363 11.3865 37.9618 11.3865C39.6873 11.3865 41.1182 12.8103 41.1182 14.5272C41.1182 16.2441 39.6873 17.6678 37.9618 17.6678Z" fill="url(#paint0_linear)"/>
<path d="M5.68272 23.8655V17.2073H2.23176C1.0113 17.2073 0.00126139 18.2123 0.00126139 19.4267V32.2406C-0.0408235 33.5387 0.969213 34.5438 2.23176 34.5438H4.20975V37.3075C4.20975 37.6844 4.54642 38.0194 4.92519 38.0194C5.13561 38.0194 5.30395 37.9357 5.43021 37.8101L8.67074 34.5856H22.9796C24.2001 34.5856 25.2101 33.5806 25.2101 32.3662V29.1837H11.0275C8.08155 29.1837 5.68272 26.7968 5.68272 23.8655Z" fill="url(#paint1_linear)"/>
<defs>
<linearGradient id="paint0_linear" x1="26.8093" y1="0.875732" x2="26.8093" y2="32.4499" gradientUnits="userSpaceOnUse">
<stop stop-color="#8CD1C0"/>
<stop offset="1" stop-color="#B7E1AC"/>
</linearGradient>
<linearGradient id="paint1_linear" x1="12.605" y1="17.2073" x2="12.605" y2="38.0194" gradientUnits="userSpaceOnUse">
<stop stop-color="#8CD1C0"/>
<stop offset="1" stop-color="#B7E1AC"/>
</linearGradient>
</defs>
</svg>
