<svg width="44" height="44" viewBox="0 0 44 44" fill="none" xmlns="http://www.w3.org/2000/svg">
<path d="M14.9219 4.89577L17.1019 7.06494L19.4672 9.41883C19.9828 9.93156 20.668 10.2138 21.3968 10.2138C21.3971 10.2138 21.3971 10.2138 21.3971 10.2138C22.1259 10.2138 22.8111 9.93122 23.327 9.41849C24.3908 8.35963 24.3912 6.63638 23.327 5.57719L18.7804 1.05346C18.2648 0.540399 17.5796 0.257812 16.8501 0.257812C16.1214 0.257812 15.4359 0.540399 14.9202 1.05313C13.8598 2.10865 13.8564 3.82388 14.9098 4.88408C14.9139 4.88809 14.9179 4.89176 14.9219 4.89577Z" fill="url(#paint0_linear)"/>
<path d="M9.23828 10.5496L10.6606 11.9648L13.7839 15.0723C13.7853 15.0733 13.7863 15.0746 13.7876 15.076L14.9051 16.1879C14.9102 16.193 14.9155 16.198 14.9206 16.203C15.4359 16.716 16.1213 16.9986 16.8505 16.9986C17.5793 16.9986 18.2648 16.716 18.7807 16.2033C19.296 15.6902 19.58 15.0082 19.58 14.283C19.58 13.5575 19.296 12.8751 18.7804 12.3623L17.6548 11.242C17.6504 11.238 17.6464 11.2343 17.6427 11.2303L15.0374 8.63761L13.0998 6.70994C13.0988 6.70894 13.0981 6.70827 13.0971 6.70727C13.0971 6.70727 13.0971 6.70694 13.0967 6.70694C12.5811 6.19421 11.8963 5.91162 11.1675 5.91162C10.4384 5.91162 9.75257 6.19421 9.23694 6.70727C8.17514 7.76413 8.17313 9.4827 9.2309 10.5422C9.23359 10.5446 9.23593 10.5472 9.23828 10.5496Z" fill="url(#paint1_linear)"/>
<path d="M3.56305 16.2123L8.08685 20.7133C8.09155 20.718 8.09625 20.7227 8.10095 20.727C8.61624 21.2401 9.30139 21.5226 10.0305 21.5226C10.7596 21.5226 11.4455 21.2401 11.9611 20.7273C13.0239 19.6691 13.0249 17.9482 11.9634 16.889L9.09158 14.0318L7.41412 12.3623C6.8985 11.8492 6.21267 11.5667 5.48388 11.5667C4.75476 11.5667 4.06961 11.8492 3.55432 12.362C3.03836 12.8754 2.75436 13.5574 2.75436 14.2826C2.75436 15.0081 3.03836 15.6902 3.55398 16.2029C3.557 16.2063 3.56002 16.2093 3.56305 16.2123Z" fill="url(#paint2_linear)"/>
<path d="M4.13172 28.088C4.5416 28.4918 5.0579 28.7507 5.61716 28.8392C5.62857 28.8412 5.63965 28.8429 5.65073 28.8449C5.78266 28.8643 5.91694 28.874 6.05289 28.874C6.78168 28.874 7.46717 28.5917 7.98279 28.0786C9.04661 27.0198 9.04661 25.2965 7.98246 24.2377L4.57282 20.845C4.05686 20.3319 3.37137 20.0493 2.64224 20.0493C1.91312 20.0493 1.22763 20.3319 0.712006 20.8446C-0.351807 21.9035 -0.352143 23.6267 0.712342 24.6853C0.717042 24.6903 0.721741 24.695 0.726441 24.7L4.12131 28.0776C4.12467 28.081 4.12836 28.0843 4.13172 28.088Z" fill="url(#paint3_linear)"/>
<path d="M43.1158 20.8454C42.2313 19.9656 40.864 19.7952 39.7908 20.4309C39.2329 20.7619 38.5148 20.6279 38.115 20.1185L38.0388 20.021C37.638 19.5106 37.6826 18.7828 38.1432 18.3248L40.2732 16.2048C40.2802 16.1981 40.2873 16.1914 40.2943 16.1844C40.7972 15.6736 41.0738 14.9999 41.0738 14.2838C41.0738 13.5586 40.7898 12.8762 40.2742 12.3631C39.7586 11.85 39.0731 11.5678 38.3443 11.5678C37.6151 11.5678 36.9297 11.8504 36.4137 12.3634C35.9105 12.8645 35.0941 12.8645 34.5905 12.3634C34.3391 12.1129 34.2132 11.7846 34.2132 11.4562C34.2132 11.1282 34.3391 10.7999 34.5909 10.5493C35.655 9.49048 35.655 7.76724 34.5909 6.70804C33.5267 5.64951 31.7949 5.64951 30.7307 6.70804C30.2275 7.20908 29.4111 7.20908 28.9076 6.70804C28.6562 6.45752 28.5299 6.12917 28.5299 5.80116C28.5299 5.47281 28.6562 5.14446 28.9079 4.89394C29.4236 4.38121 29.7075 3.69913 29.7075 2.97362C29.7075 2.24812 29.4236 1.56637 28.9079 1.05331C27.8438 -0.00589159 26.1119 -0.00555763 25.0474 1.05331L23.7372 2.35701L25.1502 3.76326C27.2194 5.82254 27.2191 9.17316 25.1498 11.2321C24.2747 12.1032 23.1481 12.6323 21.9325 12.7526C22.0809 13.2426 22.1581 13.7573 22.1581 14.2838C22.1581 15.6947 21.6059 17.0208 20.6032 18.0185C19.6005 19.0159 18.2674 19.5651 16.8501 19.5651C16.3201 19.5651 15.8021 19.4882 15.3086 19.3399C15.1905 20.5097 14.6829 21.648 13.7843 22.5426C12.9897 23.3322 11.9886 23.8396 10.9027 24.0173C11.7641 25.9553 11.3995 28.3075 9.80595 29.8938C8.80256 30.8916 7.47019 31.4404 6.0529 31.4404C6.05256 31.4404 6.05256 31.4404 6.05256 31.4404C5.99449 31.4404 5.93675 31.438 5.87901 31.4364L3.76817 33.5367C3.35425 33.9489 3.14411 34.5291 3.17701 35.1708C3.21259 35.8615 3.51942 36.5279 4.04176 37.0473L9.78346 42.7609C10.8315 43.8037 12.5372 43.8037 13.5852 42.7609L16.8404 39.5218L18.0845 39.1894C23.1743 40.5419 28.6481 39.0826 32.3693 35.3802L39.6897 28.0958C39.6954 28.0901 39.7011 28.0844 39.7069 28.0784L43.1158 24.6864C44.18 23.6278 44.18 21.9046 43.1158 20.8454Z" fill="url(#paint4_linear)"/>
<path d="M38.9643 32.4453L34.1924 37.1935C32.5462 38.8312 30.5928 40.1182 28.4574 40.983L30.243 42.7597C31.291 43.8026 32.9967 43.8026 34.0447 42.7597L39.7867 37.0465C40.8173 36.0214 41.064 34.5346 40.3259 33.8001C39.8163 33.2931 39.3443 32.8234 38.9643 32.4453Z" fill="url(#paint5_linear)"/>
<defs>
<linearGradient id="paint0_linear" x1="19.1237" y1="0.257812" x2="19.1237" y2="10.2138" gradientUnits="userSpaceOnUse">
<stop stop-color="#8ED2BF"/>
<stop offset="1" stop-color="#B0DFB0"/>
</linearGradient>
<linearGradient id="paint1_linear" x1="14.0095" y1="5.91162" x2="14.0095" y2="16.9986" gradientUnits="userSpaceOnUse">
<stop stop-color="#8ED2BF"/>
<stop offset="1" stop-color="#B0DFB0"/>
</linearGradient>
<linearGradient id="paint2_linear" x1="7.75661" y1="11.5667" x2="7.75661" y2="21.5226" gradientUnits="userSpaceOnUse">
<stop stop-color="#8ED2BF"/>
<stop offset="1" stop-color="#B0DFB0"/>
</linearGradient>
<linearGradient id="paint3_linear" x1="4.34734" y1="20.0493" x2="4.34734" y2="28.874" gradientUnits="userSpaceOnUse">
<stop stop-color="#8ED2BF"/>
<stop offset="1" stop-color="#B0DFB0"/>
</linearGradient>
<linearGradient id="paint4_linear" x1="23.5438" y1="0.259033" x2="23.5438" y2="43.543" gradientUnits="userSpaceOnUse">
<stop stop-color="#8ED2BF"/>
<stop offset="1" stop-color="#B0DFB0"/>
</linearGradient>
<linearGradient id="paint5_linear" x1="34.6047" y1="32.4453" x2="34.6047" y2="43.5418" gradientUnits="userSpaceOnUse">
<stop stop-color="#8ED2BF"/>
<stop offset="1" stop-color="#B0DFB0"/>
</linearGradient>
</defs>
</svg>
