<svg width="43" height="43" viewBox="0 0 43 43" fill="none" xmlns="http://www.w3.org/2000/svg">
<path d="M21.4996 0C9.62585 0 0 9.62614 0 21.4996C0 33.3731 9.62585 43 21.4996 43C33.3734 43 43 33.3731 43 21.4996C43 9.62614 33.3734 0 21.4996 0ZM30.7945 25.5889H21.6795C21.6487 25.5889 21.62 25.5814 21.5895 25.5803C21.559 25.5817 21.5305 25.5889 21.4995 25.5889C20.6783 25.5889 20.0125 24.9231 20.0125 24.1019V8.92251C20.0125 8.10134 20.6783 7.43554 21.4995 7.43554C22.3207 7.43554 22.9865 8.10134 22.9865 8.92251V22.6149H30.794C31.6151 22.6149 32.2809 23.2807 32.2809 24.1019C32.2809 24.9231 31.6157 25.5889 30.7945 25.5889Z" fill="url(#paint0_linear)"/>
<defs>
<linearGradient id="paint0_linear" x1="21.5" y1="0" x2="21.5" y2="43" gradientUnits="userSpaceOnUse">
<stop stop-color="#7DCAC5"/>
<stop offset="1" stop-color="#AFE0B1"/>
</linearGradient>
</defs>
</svg>
