<svg width="22" height="14" viewBox="0 0 22 14" fill="none" xmlns="http://www.w3.org/2000/svg">
<path d="M21.8834 12.0604C21.8567 12.003 21.8319 11.9554 21.8088 11.9173C21.4271 11.2298 20.6977 10.386 19.621 9.38561L19.5983 9.3627L19.5869 9.35147L19.5754 9.33996H19.5638C19.0751 8.87413 18.7657 8.56091 18.6361 8.40055C18.399 8.09508 18.3459 7.78588 18.4755 7.47258C18.567 7.23587 18.9109 6.73598 19.5064 5.97222C19.8196 5.56745 20.0677 5.24304 20.2509 4.99863C21.572 3.24219 22.1448 2.1198 21.9691 1.63102L21.9009 1.5168C21.855 1.44803 21.7367 1.38513 21.546 1.32775C21.3548 1.2705 21.1105 1.26104 20.8127 1.29919L17.5138 1.32198C17.4604 1.30304 17.3841 1.30481 17.2847 1.32775C17.1854 1.3507 17.1357 1.36222 17.1357 1.36222L17.0783 1.3909L17.0327 1.42537C16.9945 1.44815 16.9525 1.48823 16.9067 1.54553C16.8611 1.60262 16.8229 1.66962 16.7924 1.74596C16.4333 2.66996 16.0249 3.52905 15.5666 4.32318C15.2841 4.79671 15.0246 5.2071 14.7876 5.55457C14.5509 5.90193 14.3524 6.15786 14.1921 6.32191C14.0317 6.48612 13.8868 6.61767 13.7568 6.71705C13.6269 6.81646 13.5277 6.85847 13.4591 6.8431C13.3903 6.82774 13.3255 6.81249 13.2642 6.79724C13.1573 6.72848 13.0714 6.63496 13.0066 6.51661C12.9415 6.39825 12.8977 6.24929 12.8748 6.06983C12.852 5.89026 12.8385 5.7358 12.8347 5.60593C12.8311 5.47622 12.8328 5.29275 12.8405 5.05605C12.8484 4.81922 12.852 4.65898 12.852 4.57497C12.852 4.28474 12.8577 3.96976 12.869 3.62995C12.8806 3.29013 12.8899 3.02089 12.8977 2.82254C12.9055 2.62398 12.9091 2.41392 12.9091 2.19246C12.9091 1.971 12.8957 1.79732 12.869 1.67126C12.8427 1.54536 12.8023 1.42316 12.7491 1.30469C12.6955 1.18633 12.6171 1.09478 12.5142 1.02979C12.4112 0.964872 12.283 0.913358 12.1305 0.875084C11.7258 0.78349 11.2103 0.733942 10.584 0.726239C9.16376 0.710994 8.25115 0.802707 7.84643 1.00126C7.68607 1.08515 7.54095 1.19977 7.41121 1.34477C7.27372 1.51283 7.25454 1.60454 7.3538 1.61963C7.81204 1.68827 8.13645 1.85248 8.32738 2.1121L8.39619 2.24967C8.44971 2.34892 8.50315 2.52465 8.55663 2.7766C8.61003 3.02855 8.64449 3.30727 8.65965 3.61258C8.69777 4.17012 8.69777 4.64739 8.65965 5.04441C8.62142 5.4416 8.58531 5.7508 8.55085 5.97226C8.51639 6.19372 8.46487 6.37318 8.39619 6.51059C8.32738 6.64804 8.2816 6.73205 8.25866 6.76254C8.23575 6.79303 8.21665 6.81225 8.20149 6.81979C8.10223 6.85783 7.999 6.8772 7.89216 6.8772C7.78516 6.8772 7.65542 6.82368 7.50272 6.71672C7.35006 6.60977 7.19163 6.46285 7.02742 6.27573C6.86321 6.08857 6.67802 5.82703 6.47176 5.49107C6.26567 5.1551 6.05183 4.75804 5.83037 4.29987L5.64714 3.9676C5.5326 3.75384 5.37613 3.44259 5.17758 3.03413C4.9789 2.62551 4.8033 2.23025 4.65064 1.84843C4.58962 1.68807 4.49795 1.56599 4.37578 1.48198L4.31845 1.44751C4.28034 1.41702 4.21916 1.38464 4.13523 1.35014C4.05117 1.31568 3.96347 1.29096 3.87176 1.27576L0.733229 1.29855C0.412512 1.29855 0.194902 1.3712 0.0803198 1.51632L0.0344629 1.58496C0.0115545 1.6232 0 1.68426 0 1.76831C0 1.85232 0.0229084 1.95543 0.0687653 2.07751C0.526933 3.15433 1.02518 4.19283 1.56351 5.19318C2.10184 6.19352 2.56963 6.99933 2.96662 7.60987C3.36368 8.22085 3.76841 8.7975 4.1808 9.33951C4.59319 9.88173 4.86617 10.2292 4.99973 10.3819C5.13345 10.5348 5.23848 10.6491 5.31483 10.7255L5.60124 11.0004C5.78451 11.1837 6.05363 11.4032 6.40873 11.659C6.76391 11.9149 7.15713 12.1668 7.58858 12.4152C8.0201 12.6632 8.52212 12.8656 9.09491 13.0221C9.66762 13.1787 10.225 13.2416 10.7673 13.2113H12.0846C12.3517 13.1882 12.5541 13.1042 12.6917 12.9592L12.7373 12.9018C12.7679 12.8562 12.7966 12.7854 12.8231 12.6901C12.8499 12.5947 12.8632 12.4895 12.8632 12.3751C12.8554 12.0468 12.8804 11.751 12.9375 11.4875C12.9946 11.2242 13.0597 11.0256 13.1324 10.8919C13.2052 10.7583 13.2873 10.6456 13.3786 10.5542C13.4702 10.4626 13.5354 10.4071 13.5737 10.388C13.6117 10.3688 13.6421 10.3557 13.665 10.3479C13.8483 10.2869 14.0639 10.346 14.3124 10.5256C14.5606 10.7051 14.7934 10.9267 15.0112 11.19C15.2288 11.4536 15.4903 11.7493 15.7957 12.0776C16.1013 12.406 16.3685 12.6502 16.5975 12.8108L16.8265 12.9482C16.9795 13.0399 17.178 13.1239 17.4224 13.2003C17.6664 13.2766 17.8801 13.2957 18.0637 13.2575L20.9959 13.2118C21.2859 13.2118 21.5116 13.1638 21.6717 13.0685C21.8321 12.973 21.9274 12.8679 21.9581 12.7535C21.9888 12.639 21.9904 12.5091 21.9639 12.3639C21.9368 12.219 21.91 12.1177 21.8834 12.0604Z" />
</svg>
